<?xml version="1.0" encoding="utf-8"?>
<!-- Generator: Adobe Illustrator 15.0.2, SVG Export Plug-In . SVG Version: 6.00 Build 0)  -->
<!DOCTYPE svg PUBLIC "-//W3C//DTD SVG 1.1//EN" "http://www.w3.org/Graphics/SVG/1.1/DTD/svg11.dtd">
<svg version="1.1" id="Layer_1" xmlns="http://www.w3.org/2000/svg" xmlns:xlink="http://www.w3.org/1999/xlink" x="0px" y="0px"
	 width="540px" height="340px" viewBox="-13 53.5 540 340" enable-background="new -13 53.5 540 340" xml:space="preserve">
<radialGradient id="SVGID_1_" cx="339.6799" cy="280.9043" r="182.3829" gradientTransform="matrix(1.0859 0 0 0.543 -48.8712 136.0753)" gradientUnits="userSpaceOnUse">
	<stop  offset="0.5455" style="stop-color:#231F20"/>
	<stop  offset="0.9641" style="stop-color:#231F20;stop-opacity:0.079"/>
	<stop  offset="1" style="stop-color:#231F20;stop-opacity:0"/>
</radialGradient>
<ellipse opacity="0.68" fill="url(#SVGID_1_)" cx="320" cy="288.609" rx="250" ry="137.293"/>
<path fill="#D3E7F8" d="M222.913,152.287l10.155,3.545c-4.64,6.485-8.534,11.248-11.678,14.303
	c-3.392,3.278-5.924,4.597-7.603,3.973c-1.697-0.627-1.654-2.933,0.128-6.917C215.512,163.608,218.513,158.648,222.913,152.287z
	 M159.074,128.05c1.253-2.705,2.959-5.575,5.146-8.625c4.552-6.381,9.676-11.475,15.383-15.282
	c5.725-3.845,10.479-5.25,14.256-4.175c4.319,1.237,5.779,5.253,4.362,12.036c-1.367,6.538-5.507,14.78-12.393,24.64l6.097,2.002
	l25.497-36.794l-39.79-11.192l-24.904,35.396L159.074,128.05z M214.311,146.136c6.99-9.867,14.015-17.417,21.087-22.619
	c7.206-5.348,13.129-7.339,17.751-5.912c4.85,1.505,6.629,5.835,5.32,12.978c-1.232,6.727-5.52,15.556-12.849,26.394l5.544,1.965
	l26.401-38.954l-42.154-12.867l-25.765,37.434L214.311,146.136z M212.522,130.782l8.387-12.154l-6.427-1.975l-8.356,12.079
	L212.522,130.782z M244.598,137.09c1.762-4.03,1.797-6.324,0.11-6.87c-1.75-0.565-4.313,0.827-7.688,4.158
	c-3.315,3.261-7.416,8.375-12.298,15.314l10.183,3.524C239.686,146.312,242.92,140.923,244.598,137.09z M263.637,185.812
	c-1.82,4.197-1.838,6.642-0.056,7.342c1.762,0.695,4.396-0.658,7.901-4.074c3.257-3.185,7.273-8.167,12.053-14.965l-10.66-3.956
	C268.345,176.828,265.265,182.04,263.637,185.812z M263.811,163.471c7.195-10.339,14.456-18.222,21.793-23.61
	c7.479-5.542,13.65-7.548,18.506-5.947c5.087,1.687,6.999,6.315,5.712,13.875c-1.211,7.119-5.599,16.411-13.146,27.783l3.153,1.185
	c6.446-10.903,13.876-20.272,21.699-27.553l8.109-12.325l-44.254-14.423l-26.514,39.237L263.811,163.471z M295.381,154.435
	c1.795-4.247,1.808-6.68,0.037-7.289c-1.837-0.632-4.504,0.796-7.994,4.271c-3.432,3.398-7.662,8.751-12.688,16.024l10.69,3.936
	C290.346,164.131,293.668,158.472,295.381,154.435z M243.786,159.622c-7.027,9.898-14.03,17.218-20.993,21.977
	c-7.077,4.792-12.905,6.275-17.486,4.508c-3.331-1.281-5.116-3.928-5.358-7.948c-0.241-4.009,0.979-8.764,3.661-14.288
	c2.364-4.886,5.334-9.938,8.909-15.164l-4.662-1.592l-25.633,35.938l40.851,15.937l26.258-37.386L243.786,159.622z M196.548,153.271
	l-6.336-2.189l-8.314,11.652l6.303,2.26L196.548,153.271z M139.185,124.776c-6.603,8.945-13.125,15.62-19.559,20.041
	c-6.542,4.454-11.88,5.956-16.014,4.558c-3.005-1.014-4.57-3.284-4.704-6.814c-0.133-3.522,1.082-7.75,3.642-12.703
	c2.258-4.383,5.07-8.932,8.438-13.655l-4.314-1.281l-24.12,32.506l36.839,12.628l24.676-33.756L139.185,124.776z M184.037,139.134
	c-3.835,5.192-7.927,9.85-12.281,13.958c-4.728,4.434-9.442,7.653-14.142,9.669c-4.685,1.997-8.795,2.352-12.331,1.086
	c-2.505-0.893-4.563-2.74-6.171-5.535l9.839-13.35c0.668,3.635,1.993,5.795,3.978,6.475c2.153,0.74,4.753,0.122,7.8-1.867
	c3.054-2,6.542-5.369,10.465-10.125c-2.624,1.643-4.89,2.776-6.798,3.412c-1.907,0.631-3.446,0.749-4.618,0.357
	c-2.754-0.917-3.741-3.66-2.969-8.233c0.233-1.374,0.637-2.809,1.177-4.292l-6.99-2.215l-24.78,33.992l38.569,14.021l25.367-35.327
	L184.037,139.134z M298.17,179.625l-3.382-1.282c-7.24,10.379-14.48,18.018-21.706,22.939c-7.345,4.953-13.421,6.415-18.23,4.45
	c-3.498-1.423-5.391-4.27-5.688-8.541c-0.299-4.262,0.919-9.288,3.661-15.099c2.417-5.143,5.464-10.451,9.142-15.929l-4.943-1.793
	l-26.375,37.66l42.873,17.713l16.901-24.352C292.759,189.87,295.361,184.599,298.17,179.625z M180.641,114.804
	c-1.962,1.664-3.911,3.859-5.846,6.579c-1.912,2.681-3.146,4.923-3.703,6.729c-0.557,1.807-0.338,2.868,0.657,3.188
	c0.706,0.225,1.812-0.097,3.316-0.969c1.508-0.875,3.417-2.306,5.729-4.293c2.478-3.851,4.081-6.951,4.81-9.295
	c0.726-2.347,0.576-3.672-0.448-3.98C184.112,112.452,182.605,113.134,180.641,114.804z M111.859,132.439
	c-1.708,3.567-1.796,5.597-0.265,6.093c1.515,0.493,3.847-0.753,7.001-3.753c2.924-2.791,6.573-7.125,10.925-12.979l-9.152-2.783
	C116.231,124.761,113.389,129.232,111.859,132.439z M132.338,93.258c6.667-4.949,12.087-6.894,16.257-5.785
	c4.37,1.169,5.892,4.927,4.553,11.259c-1.265,5.964-5.349,13.876-12.241,23.658l4.885,1.507l24.801-35.149l-37.996-9.979
	l-24.24,33.841l4.316,1.272C119.245,104.956,125.798,98.07,132.338,93.258z M140.407,104.918c1.686-3.608,1.768-5.629,0.248-6.055
	c-1.579-0.442-3.937,0.869-7.075,3.915c-3.083,2.98-6.922,7.625-11.511,13.896l9.179,2.765
	C135.735,113.207,138.801,108.344,140.407,104.918z"/>
<path fill="#2D6AB4" d="M286.891,201.969l1.39-3.493l-14.762,21.269l-42.872-17.714l26.375-37.659l4.943,1.794
	c-3.678,5.478-6.726,10.786-9.142,15.928c-2.74,5.812-3.96,10.837-3.661,15.1c0.297,4.271,2.189,7.118,5.688,8.54
	c0.486,0.199,0.986,0.353,1.499,0.479c-0.228-0.076-0.454-0.151-0.676-0.242c-3.497-1.424-5.392-4.271-5.688-8.547
	c-0.299-4.265,0.922-9.291,3.661-15.107c2.417-5.145,5.464-10.452,9.143-15.933l10.908,3.999c-0.017,0.023-0.027,0.043-0.045,0.066
	l9.882,3.667c-4.779,6.798-8.796,11.78-12.053,14.965c-3.069,2.99-5.466,4.395-7.198,4.235c0.045,0.021,0.075,0.053,0.123,0.071
	c1.76,0.694,4.394-0.658,7.902-4.077c3.254-3.186,7.272-8.17,12.051-14.971l11.252,4.231c-0.016,0.022-0.031,0.044-0.045,0.066
	l1.805,0.684c0.02-0.038,0.04-0.077,0.062-0.114c0.522-0.927,1.054-1.845,1.593-2.754l-2.351-0.884
	c0.018-0.023,0.029-0.044,0.043-0.066l-10.466-3.905c4.919-7.248,8.241-12.911,9.954-16.948c1.795-4.25,1.808-6.683,0.037-7.292
	c-0.201-0.07-0.412-0.109-0.632-0.129c0,0,0,0-0.001,0c1.57,0.721,1.497,3.124-0.229,7.205c-1.713,4.038-5.035,9.697-9.955,16.941
	l-10.69-3.935c0.015-0.02,0.029-0.042,0.045-0.062l-10.147-3.69c7.195-10.344,14.457-18.231,21.795-23.62
	c0.445-0.33,0.887-0.646,1.323-0.952c0.194-0.137,0.388-0.263,0.58-0.394c0.237-0.162,0.477-0.327,0.713-0.48
	c0.227-0.15,0.45-0.289,0.674-0.43c0.195-0.124,0.395-0.25,0.587-0.368c0.24-0.147,0.479-0.285,0.715-0.424
	c0.173-0.1,0.344-0.202,0.515-0.297c0.249-0.14,0.495-0.273,0.741-0.404c0.151-0.081,0.304-0.163,0.456-0.24
	c0.256-0.131,0.51-0.255,0.762-0.377c0.134-0.063,0.267-0.127,0.4-0.188c0.263-0.121,0.522-0.237,0.782-0.346
	c0.116-0.05,0.23-0.098,0.346-0.144c0.271-0.111,0.54-0.217,0.805-0.314c0.094-0.034,0.187-0.067,0.28-0.099
	c0.283-0.1,0.563-0.194,0.84-0.279c0.066-0.02,0.13-0.038,0.195-0.057c0.3-0.089,0.598-0.173,0.893-0.244
	c0.02-0.005,0.041-0.009,0.062-0.014c2.025-0.484,3.899-0.555,5.621-0.21c0.016,0.003,0.031,0.004,0.046,0.007
	c-4.8-1.398-10.854,0.631-18.16,6.044c-7.337,5.389-14.598,13.272-21.793,23.61l-4.941-1.778l26.514-39.237l44.254,14.424
	l-6.251,9.501c6.515-5.7,13.089-9.81,19.601-12.238l-213.3-61.687c-0.02,0.042-0.045,0.082-0.073,0.12
	c-0.001,0.001-0.001,0.002-0.002,0.004l-56.349,77.107l206.285,79.607C281.067,220.184,283.534,211.005,286.891,201.969z
	 M277.568,119.99l-26.401,38.954l-5.545-1.966c0.015-0.021,0.026-0.041,0.043-0.063l-9.932-3.487
	c4.778-6.911,8.013-12.301,9.69-16.136c1.763-4.033,1.797-6.327,0.112-6.873c-0.193-0.062-0.401-0.092-0.613-0.106
	c1.462,0.671,1.361,2.929-0.322,6.778c-1.678,3.833-4.912,9.221-9.692,16.128l-10.183-3.525c0.016-0.021,0.03-0.041,0.044-0.062
	l-9.631-3.293c6.989-9.871,14.013-17.427,21.087-22.628c0.431-0.32,0.856-0.627,1.28-0.922c0.168-0.12,0.336-0.23,0.504-0.345
	c0.248-0.169,0.498-0.342,0.743-0.503c0.204-0.135,0.406-0.26,0.608-0.389c0.203-0.129,0.406-0.26,0.607-0.383
	c0.219-0.135,0.436-0.263,0.652-0.39c0.179-0.105,0.358-0.211,0.535-0.311c0.228-0.129,0.452-0.252,0.678-0.374
	c0.158-0.085,0.318-0.171,0.475-0.253c0.237-0.122,0.469-0.238,0.701-0.353c0.141-0.067,0.28-0.135,0.418-0.2
	c0.243-0.113,0.484-0.222,0.723-0.327c0.122-0.052,0.242-0.104,0.361-0.153c0.252-0.105,0.503-0.206,0.75-0.299
	c0.098-0.036,0.195-0.071,0.293-0.107c0.265-0.095,0.528-0.187,0.786-0.269c0.069-0.022,0.136-0.042,0.203-0.062
	c0.285-0.087,0.568-0.17,0.847-0.241c0.019-0.005,0.042-0.009,0.061-0.014c1.955-0.493,3.757-0.588,5.409-0.284
	c-4.581-1.259-10.4,0.751-17.457,5.987c-7.071,5.202-14.096,12.752-21.088,22.619l-4.663-1.579l25.765-37.434L277.568,119.99z
	 M212.522,130.782l-6.396-2.05l8.356-12.079l6.427,1.975L212.522,130.782z M217.423,101.853l-25.498,36.795l-6.097-2.002
	c0.013-0.02,0.027-0.039,0.042-0.06l-25.971-8.351c1.252-2.706,2.958-5.577,5.146-8.63c4.55-6.383,9.674-11.478,15.382-15.287
	c0.34-0.229,0.677-0.448,1.011-0.659c0.141-0.089,0.281-0.172,0.42-0.259c0.189-0.116,0.379-0.235,0.566-0.346
	c0.167-0.101,0.333-0.194,0.5-0.289c0.154-0.088,0.31-0.178,0.463-0.263c0.179-0.101,0.357-0.195,0.535-0.289
	c0.134-0.071,0.268-0.142,0.4-0.21c0.191-0.098,0.38-0.19,0.567-0.281c0.116-0.056,0.23-0.11,0.342-0.163
	c0.199-0.093,0.396-0.182,0.593-0.266c0.097-0.042,0.192-0.083,0.289-0.124c0.21-0.088,0.417-0.173,0.623-0.252
	c0.074-0.029,0.147-0.056,0.221-0.084c0.223-0.083,0.443-0.163,0.664-0.236c0.046-0.015,0.091-0.03,0.138-0.044
	c2.17-0.708,4.144-0.919,5.919-0.628c0.001,0,0.002,0,0.003,0c-3.75-0.982-8.442,0.432-14.077,4.218
	c-5.708,3.807-10.832,8.901-15.384,15.282c-2.187,3.05-3.892,5.921-5.146,8.625l-6.346-1.994l24.904-35.396L217.423,101.853z
	 M132.598,78.768l37.996,9.979l-24.801,35.149l-4.884-1.507c0.015-0.02,0.028-0.04,0.042-0.06l-8.878-2.715
	c4.488-6.236,7.552-11.1,9.159-14.527c1.688-3.61,1.77-5.633,0.249-6.059c-0.202-0.056-0.418-0.083-0.645-0.082
	c1.314,0.544,1.184,2.525-0.427,5.971c-1.606,3.426-4.672,8.289-9.159,14.52l-9.179-2.765c0.015-0.02,0.029-0.039,0.043-0.059
	l-8.613-2.564c6.571-8.929,13.122-15.817,19.664-20.632c0.397-0.295,0.789-0.578,1.178-0.852c0.173-0.122,0.343-0.235,0.515-0.353
	c0.213-0.146,0.427-0.295,0.638-0.434c0.198-0.133,0.395-0.257,0.59-0.382c0.177-0.114,0.354-0.23,0.53-0.338
	c0.211-0.132,0.419-0.256,0.626-0.38c0.156-0.093,0.312-0.188,0.465-0.276c0.218-0.126,0.435-0.247,0.651-0.365
	c0.137-0.076,0.274-0.151,0.41-0.224c0.223-0.119,0.443-0.232,0.662-0.342c0.125-0.062,0.249-0.125,0.372-0.184
	c0.227-0.11,0.449-0.215,0.671-0.315c0.111-0.049,0.22-0.097,0.33-0.145c0.23-0.1,0.46-0.197,0.686-0.288
	c0.093-0.036,0.184-0.07,0.276-0.106c0.24-0.091,0.477-0.18,0.71-0.26c0.07-0.024,0.138-0.045,0.207-0.068
	c0.252-0.083,0.503-0.162,0.75-0.231c0.036-0.01,0.071-0.019,0.105-0.028c1.762-0.485,3.381-0.625,4.857-0.415
	c0.013,0.001,0.027,0.002,0.039,0.005c-4.149-1.017-9.513,0.937-16.092,5.821c-6.542,4.812-13.093,11.698-19.664,20.624
	l-4.316-1.271L132.598,78.768z M82.554,147.428l24.12-32.506l4.314,1.281c-3.367,4.722-6.18,9.272-8.438,13.655
	c-2.56,4.954-3.775,9.18-3.642,12.703c0.134,3.53,1.698,5.8,4.704,6.814c0.423,0.142,0.861,0.246,1.309,0.329
	c-0.161-0.045-0.326-0.087-0.485-0.141c-3.006-1.014-4.57-3.287-4.703-6.818c-0.132-3.523,1.082-7.754,3.641-12.711
	c2.258-4.384,5.071-8.936,8.438-13.662l9.38,2.817c-0.015,0.021-0.029,0.04-0.043,0.062l8.372,2.547
	c-4.353,5.854-8.001,10.188-10.925,12.98c-2.729,2.595-4.84,3.872-6.341,3.852c0.058,0.026,0.102,0.064,0.164,0.085
	c1.514,0.492,3.847-0.754,7.001-3.754c2.924-2.793,6.572-7.129,10.927-12.986l9.663,2.981c-0.015,0.02-0.031,0.04-0.045,0.061
	l4.105,1.28l-24.676,33.756L82.554,147.428z M126.217,162.465l24.78-33.992l6.99,2.215c-0.54,1.482-0.943,2.917-1.177,4.292
	c-0.772,4.574,0.213,7.317,2.969,8.233c0.238,0.08,0.495,0.133,0.765,0.17c-0.102-0.035-0.181-0.089-0.278-0.129
	c-0.222-0.092-0.447-0.182-0.642-0.3c-0.082-0.049-0.146-0.117-0.224-0.17c-0.193-0.135-0.387-0.27-0.553-0.433
	c-0.064-0.064-0.111-0.146-0.172-0.215c-0.155-0.176-0.312-0.352-0.438-0.558c-0.053-0.085-0.087-0.19-0.134-0.28
	c-0.112-0.211-0.228-0.421-0.313-0.661c-0.041-0.116-0.062-0.252-0.097-0.374c-0.068-0.239-0.142-0.472-0.186-0.737
	c-0.028-0.165-0.033-0.354-0.051-0.528c-0.027-0.248-0.063-0.485-0.07-0.752c-0.007-0.247,0.014-0.524,0.022-0.787
	c0.008-0.222,0.001-0.43,0.02-0.665c0.042-0.513,0.11-1.055,0.208-1.625c0.232-1.375,0.637-2.811,1.176-4.295l26.052,8.455
	c-0.016,0.02-0.032,0.04-0.048,0.062l5.338,1.768l-25.367,35.327L126.217,162.465z M190.212,151.082l6.336,2.189l-8.348,11.722
	l-6.303-2.26L190.212,151.082z M182.224,183.051l25.633-35.938l4.662,1.592c-3.575,5.227-6.545,10.278-8.909,15.164
	c-2.682,5.523-3.902,10.279-3.661,14.288c0.241,4.02,2.027,6.667,5.358,7.948c0.468,0.18,0.951,0.317,1.445,0.428
	c-0.209-0.065-0.417-0.129-0.621-0.208c-3.332-1.28-5.115-3.931-5.356-7.953c-0.243-4.011,0.978-8.77,3.659-14.296
	c2.364-4.888,5.335-9.942,8.91-15.171l10.393,3.586c-0.016,0.023-0.029,0.042-0.043,0.063l9.375,3.274
	c-4.64,6.485-8.534,11.248-11.678,14.304c-2.956,2.858-5.257,4.223-6.911,4.114c0.047,0.022,0.081,0.056,0.131,0.076
	c1.679,0.624,4.212-0.695,7.602-3.976c3.145-3.056,7.04-7.821,11.679-14.308l10.717,3.793c-0.015,0.021-0.03,0.043-0.045,0.064
	l4.767,1.705l-26.258,37.385L182.224,183.051z"/>
<path fill="#0A1C32" stroke="#0A1C32" stroke-miterlimit="10" d="M275.56,167.662l-10.927-3.974
	c7.196-10.344,14.457-18.23,21.795-23.62c7.479-5.544,13.648-7.55,18.505-5.949c5.089,1.687,7.001,6.319,5.712,13.881
	c-1.213,7.122-5.601,16.42-13.146,27.795l-11.248-4.198c4.919-7.247,8.241-12.91,9.954-16.947c1.795-4.25,1.808-6.683,0.037-7.292
	c-1.837-0.634-4.502,0.796-7.994,4.271C284.817,155.03,280.584,160.384,275.56,167.662z M157.635,135.168
	c-0.774,4.577,0.212,7.321,2.967,8.238c1.172,0.393,2.711,0.273,4.618-0.356c1.91-0.635,4.174-1.769,6.798-3.411
	c-3.925,4.757-7.412,8.128-10.464,10.128c-3.048,1.989-5.647,2.608-7.8,1.868c-1.986-0.68-3.311-2.843-3.979-6.479l-9.838,13.355
	c1.609,2.796,3.666,4.646,6.172,5.54c3.537,1.266,7.646,0.912,12.33-1.087c4.7-2.017,9.415-5.235,14.141-9.67
	c4.354-4.112,8.447-8.77,12.283-13.965l-26.051-8.454C158.272,132.358,157.867,133.793,157.635,135.168z M130.345,121.978
	c-4.354,5.855-8.002,10.193-10.927,12.986c-3.155,2.999-5.487,4.246-7.002,3.753c-1.531-0.498-1.442-2.528,0.266-6.097
	c1.529-3.208,4.372-7.683,8.508-13.429l-9.38-2.816c-3.366,4.725-6.179,9.278-8.438,13.661c-2.559,4.958-3.773,9.188-3.641,12.712
	c0.133,3.531,1.697,5.804,4.703,6.818c4.133,1.4,9.47-0.102,16.012-4.559c6.434-4.422,12.958-11.099,19.559-20.048L130.345,121.978z
	 M134.405,102.945c3.138-3.047,5.495-4.357,7.074-3.916c1.521,0.426,1.439,2.449-0.249,6.059c-1.606,3.428-4.671,8.292-9.159,14.527
	l9.66,2.953c6.894-9.786,10.977-17.703,12.24-23.668c1.341-6.337-0.183-10.097-4.552-11.267c-4.169-1.11-9.589,0.837-16.255,5.786
	c-6.542,4.814-13.093,11.703-19.664,20.632l9.394,2.795C127.48,110.572,131.322,105.926,134.405,102.945z M199.045,112.185
	c-1.368,6.541-5.507,14.788-12.394,24.651l-26.753-8.603c1.252-2.706,2.958-5.577,5.146-8.63c4.55-6.383,9.674-11.478,15.382-15.287
	c5.726-3.847,10.478-5.251,14.255-4.175C199.002,101.38,200.463,105.398,199.045,112.185z M185.981,112.944
	c-1.046-0.314-2.553,0.37-4.515,2.041c-1.963,1.666-3.912,3.86-5.847,6.582c-1.911,2.682-3.146,4.925-3.702,6.732
	c-0.557,1.809-0.338,2.871,0.657,3.189c0.705,0.227,1.811-0.096,3.316-0.967c1.509-0.876,3.417-2.307,5.729-4.296
	c2.48-3.852,4.082-6.955,4.81-9.3C187.157,114.579,187.005,113.251,185.981,112.944z M253.976,117.797
	c-4.625-1.428-10.545,0.564-17.753,5.914c-7.074,5.201-14.098,12.757-21.087,22.628l10.41,3.559
	c4.882-6.94,8.983-12.057,12.298-15.32c3.373-3.334,5.938-4.724,7.689-4.159c1.685,0.546,1.651,2.84-0.112,6.873
	c-1.676,3.835-4.912,9.225-9.69,16.136l10.713,3.761c7.33-10.842,11.617-19.675,12.85-26.404
	C260.6,123.637,258.823,119.305,253.976,117.797z M255.157,278.897c-0.023-0.012-0.04-0.035-0.062-0.05
	c0.229-0.368,0.454-0.744,0.687-1.101l0.99,0.069l54.767,28.011l23.532,10.682c-17.035-19.889-19.115-60.402-4.556-98.871
	c14.913-40.239,43.383-69.649,68.184-70.716L110.073,62.646c-0.139,0.046-0.287,0.056-0.438,0.027
	c-1.345-0.27-2.759-0.408-4.201-0.408c-18.938,0-43.859,23.372-57.969,54.363c-14.071,30.249-13.165,60.418,2.086,70.259
	l0.485,0.772c-0.235,0.329-0.466,0.661-0.697,1.001l-0.511-0.231c-0.036-0.017-0.072-0.036-0.106-0.057
	c-16.309-10.409-17.487-40.878-2.799-72.453c14.366-31.553,39.951-55.352,59.511-55.352c1.396,0,2.768,0.12,4.086,0.355
	c0.177-0.079,0.381-0.097,0.581-0.038c0,0,299.149,86.749,301.999,88.195c11.982,5.597,20.665,19.955,23.835,39.937
	c3.381,21.298,0.487,46.716-8.149,71.576c-0.818,2.3-1.686,4.592-2.587,6.818c-0.069,0.17-0.189,0.312-0.346,0.406l-85.754,51.938
	c-0.001,0-0.001,0-0.001,0s-0.001,0-0.001,0.001l-0.006,0.002c-0.066,0.041-0.14,0.074-0.216,0.092
	c-0.088,0.028-0.181,0.044-0.273,0.044c-0.116,0-0.23-0.021-0.333-0.068l-27.467-12.47L255.157,278.897z M338.781,317.962
	l84.951-51.447c0.854-2.122,1.679-4.301,2.453-6.483c17.103-49.234,10.002-98.671-15.365-109.355
	c-0.089-0.037-0.179-0.076-0.265-0.11c-0.365-0.149-0.731-0.292-1.104-0.426c-0.002-0.001-0.005-0.002-0.008-0.002
	c-2.967-1.027-6.117-1.549-9.359-1.549c-24.435,0-53.024,29.29-67.981,69.644C317.082,257.926,319.921,299.688,338.781,317.962z
	 M279.777,231.196L71.603,150.86c-0.247-0.094-0.567-0.295-0.508-0.553c8.494-37.825,32.471-68.732,58.493-79.652l215.824,62.42
	c0.259,0.075,0.466,0.268,0.56,0.52c0.094,0.252,0.062,0.533-0.085,0.758l-0.318,0.491c-0.104,0.161-0.263,0.283-0.444,0.343
	c-7.609,2.52-15.353,7.444-23.016,14.638c-7.803,7.259-15.249,16.711-21.534,27.34c-0.563,0.948-1.117,1.906-1.665,2.877
	c-2.817,4.988-5.407,10.254-7.693,15.651c-0.004,0.01-0.008,0.021-0.014,0.031c-0.719,1.697-1.365,3.288-1.975,4.869
	c-3.792,9.806-6.524,19.791-8.121,29.684c-0.021,0.128-0.069,0.247-0.144,0.353l-0.183,0.262c-0.162,0.231-0.425,0.362-0.695,0.362
	C279.98,231.254,279.877,231.235,279.777,231.196z M74.268,145.401l52.128-71.326C109.433,81.986,84.681,106.188,74.268,145.401z
	 M279.548,229.287c1.519-9.104,3.986-18.282,7.343-27.318l2.781-6.988c2.308-5.439,4.918-10.746,7.76-15.772
	c0.552-0.979,1.112-1.95,1.681-2.908c6.367-10.766,13.917-20.349,21.838-27.714c7.305-6.859,14.712-11.712,22.035-14.444
	l-213.299-61.69c-0.02,0.042-0.045,0.082-0.073,0.12c-0.001,0.001-0.001,0.002-0.002,0.004l-56.349,77.107L279.548,229.287z
	 M284.36,174.339c-4.779,6.801-8.798,11.786-12.052,14.971c-3.509,3.418-6.142,4.771-7.902,4.077
	c-1.784-0.701-1.762-3.147,0.054-7.347c1.629-3.773,4.71-8.987,9.238-15.659l-10.908-3.998c-3.679,5.48-6.726,10.788-9.143,15.933
	c-2.739,5.816-3.96,10.842-3.661,15.106c0.296,4.276,2.191,7.125,5.688,8.548c4.81,1.966,10.885,0.506,18.232-4.451
	c7.227-4.921,14.465-12.564,21.704-22.948L284.36,174.339z M222.213,170.35c-3.391,3.28-5.924,4.6-7.602,3.976
	c-1.697-0.629-1.652-2.935,0.129-6.922c1.595-3.583,4.596-8.546,8.996-14.908l-10.393-3.586c-3.575,5.228-6.546,10.282-8.91,15.171
	c-2.68,5.526-3.901,10.284-3.659,14.296c0.241,4.021,2.025,6.672,5.356,7.952c4.583,1.769,10.41,0.287,17.489-4.508
	c6.961-4.76,13.962-12.083,20.989-21.986l-10.717-3.792C229.253,162.529,225.358,167.294,222.213,170.35z"/>
<path fill="#203D75" d="M126.396,74.075l-52.128,71.326C84.681,106.188,109.433,81.986,126.396,74.075z M423.733,266.515
	c0.854-2.122,1.679-4.302,2.453-6.485c17.103-49.233,10.002-98.67-15.365-109.354c-0.089-0.037-0.179-0.076-0.265-0.11
	c-0.365-0.149-0.731-0.292-1.104-0.426c-0.002-0.001-0.005-0.001-0.008-0.002c-2.967-1.028-6.117-1.549-9.359-1.549
	c-24.435,0-53.024,29.29-67.981,69.644c-15.021,39.694-12.182,81.457,6.678,99.73L423.733,266.515z"/>
<linearGradient id="SVGID_2_" gradientUnits="userSpaceOnUse" x1="186.1389" y1="159.7061" x2="245.087" y2="330.9041" gradientTransform="matrix(1 0 0 -1 -8.3599 422.0547)">
	<stop  offset="0" style="stop-color:#0A1C32"/>
	<stop  offset="0.2848" style="stop-color:#0C1E33"/>
	<stop  offset="0.4015" style="stop-color:#132237"/>
	<stop  offset="0.4875" style="stop-color:#1E2B3F"/>
	<stop  offset="0.5584" style="stop-color:#2C374A"/>
	<stop  offset="0.62" style="stop-color:#3E475A"/>
	<stop  offset="0.6751" style="stop-color:#555E70"/>
	<stop  offset="0.7255" style="stop-color:#747E90"/>
	<stop  offset="0.7706" style="stop-color:#9CAABA"/>
	<stop  offset="0.8109" style="stop-color:#D3E7F8"/>
	<stop  offset="0.811" style="stop-color:#D5E8F8"/>
	<stop  offset="0.8122" style="stop-color:#E7F1FB"/>
	<stop  offset="0.8138" style="stop-color:#F3F8FD"/>
	<stop  offset="0.8159" style="stop-color:#FCFDFE"/>
	<stop  offset="0.8218" style="stop-color:#FFFFFF"/>
	<stop  offset="0.8287" style="stop-color:#BCBCC3"/>
	<stop  offset="0.8365" style="stop-color:#8E8E9A"/>
	<stop  offset="0.8453" style="stop-color:#6A6B7A"/>
	<stop  offset="0.8549" style="stop-color:#4F5263"/>
	<stop  offset="0.8655" style="stop-color:#3A3F51"/>
	<stop  offset="0.8774" style="stop-color:#2A3245"/>
	<stop  offset="0.8914" style="stop-color:#1D283C"/>
	<stop  offset="0.9086" style="stop-color:#132136"/>
	<stop  offset="0.9328" style="stop-color:#0C1D33"/>
	<stop  offset="1" style="stop-color:#0A1C32"/>
</linearGradient>
<path fill="url(#SVGID_2_)" d="M288.282,198.473l-0.002,0.003l-14.762,21.269L288.282,198.473z M278.996,258.045L69.944,171.439
	c0,0-11.366,4.089-20.111,16.514l0,0c0.069-0.097,0.136-0.197,0.205-0.293l-0.485-0.772c-15.252-9.842-16.159-40.012-2.086-70.259
	c14.109-30.992,39.031-54.363,57.968-54.363c1.443,0,2.856,0.138,4.201,0.408c0.151,0.029,0.3,0.019,0.438-0.027l288.625,84.275
	c-24.802,1.068-53.271,30.478-68.184,70.716c-14.559,38.47-12.479,78.982,4.556,98.871l-23.532-10.682l-54.767-28.011l-0.968-0.066
	C265.745,262.562,278.996,258.045,278.996,258.045z M279.777,231.196c0.101,0.039,0.203,0.058,0.307,0.058
	c0.271,0,0.533-0.131,0.696-0.363l0.182-0.262c0.074-0.105,0.122-0.226,0.144-0.353c1.598-9.892,4.33-19.878,8.121-29.684
	c0.609-1.581,1.256-3.173,1.975-4.869c0.005-0.01,0.01-0.021,0.014-0.031c2.286-5.397,4.876-10.663,7.694-15.651
	c0.547-0.971,1.101-1.928,1.664-2.877c6.285-10.627,13.731-20.081,21.534-27.339c7.663-7.194,15.406-12.119,23.016-14.638
	c0.183-0.06,0.34-0.182,0.444-0.343l0.318-0.491c0.147-0.226,0.18-0.506,0.086-0.758c-0.095-0.252-0.302-0.444-0.561-0.52
	L129.587,70.655c-26.022,10.919-49.999,41.827-58.492,79.652c-0.059,0.258,0.261,0.459,0.508,0.553L279.777,231.196z"/>
<path fill="#40152A" d="M27.595,261.229c-13.191,13.153-31.678,12.477-31.678,12.477l200.507,109.773
	c0,0,21.797,2.141,37.002-13.304L27.595,261.229z"/>
<path fill="#731630" d="M37.891,249.842c-2.048,4.021-4.523,7.318-7.214,10.046l205.83,108.883
	c3.403-3.514,6.478-7.916,8.902-13.438c3.93-8.992,4.348-17.531,3.715-25.497L42.299,229.1
	C42.427,235.5,41.659,242.415,37.891,249.842z"/>
<path fill="#CC202D" d="M251.322,285.497L45.658,194.554c-0.933,1.616-1.813,3.347-2.618,5.204
	c-3.33,7.656-0.95,16.324-0.751,26.291l206.825,100.275c-1.009-12.636-4.676-23.746-1.193-33.21
	C248.932,290.352,250.084,287.829,251.322,285.497z"/>
<path fill="#F1573A" d="M66.471,173.081c-4.664,2.519-13.068,8.177-19.174,18.829l205.662,90.629
	c7.068-13.42,17.108-20.066,22.418-22.843L66.471,173.081z"/>
<path fill="#FFFFFF" d="M30.677,259.888l205.83,108.883l-3.081,1.405L27.595,261.229L30.677,259.888z"/>
<path fill="#FFFFFF" d="M42.289,226.049l206.825,100.275l0.011,3.511L42.299,229.1L42.289,226.049z"/>
<path fill="#FFFFFF" d="M66.471,173.081l208.906,86.616l3.619-1.651L69.944,171.439L66.471,173.081z"/>
<path fill="#FFFFFF" d="M47.297,191.91l205.662,90.629l-1.637,2.958L45.658,194.554L47.297,191.91z"/>
</svg>
