<?xml version="1.0" encoding="utf-8"?>
<!-- Generator: Adobe Illustrator 15.0.2, SVG Export Plug-In . SVG Version: 6.00 Build 0)  -->
<!DOCTYPE svg PUBLIC "-//W3C//DTD SVG 1.1//EN" "http://www.w3.org/Graphics/SVG/1.1/DTD/svg11.dtd">
<svg version="1.1" id="Layer_1" xmlns="http://www.w3.org/2000/svg" xmlns:xlink="http://www.w3.org/1999/xlink" x="0px" y="0px"
	 width="85.039px" height="85.039px" viewBox="0 0 85.039 85.039" enable-background="new 0 0 85.039 85.039" xml:space="preserve">
<path fill="#40152A" d="M35,81.279c11.327,0,22.345-4.882,30.783-12.724L3.807,59.908c1.162,3.327,2.815,6.427,4.961,9.178
	c4.938,6.326,12.115,10.426,20.41,11.732l1.021,0.154c0.552,0.071,1.108,0.132,1.669,0.179C32.901,81.235,33.956,81.279,35,81.279z"
	/>
<path fill="#731630" d="M11.023,59.258l-7.769-1.084C1.547,52.298,1.34,45.796,2.774,39.246c0.206-0.932,0.45-1.852,0.713-2.765
	l33.961,4.228L11.023,59.258z M41.1,41.163L14.61,59.76l52.669,7.348c5.782-5.834,10.18-13.109,12.38-21.146L41.1,41.163z"/>
<path fill="#CC202D" d="M4.023,34.751c2.323-6.996,6.327-13.346,11.432-18.57l29.114,3.223l-4.922,19.78L4.023,34.751z
	 M79.263,23.243L46.82,19.655l-4.928,19.806l38.203,4.757c0.063-0.276,0.138-0.551,0.194-0.83
	C81.773,36.341,81.379,29.394,79.263,23.243z"/>
<path fill="#F1573A" d="M51.21,2.013l3.798,0.368c7.483,1.442,14.003,5.21,18.721,10.919c1.972,2.385,3.56,5.053,4.758,7.918
	l-31.197-3.45L51.21,2.013z M17.244,14.439l27.796,3.077l3.913-15.733l-0.569-0.057c-0.132-0.001-0.264-0.007-0.395-0.007
	C36.706,1.72,25.693,6.604,17.244,14.439z"/>
<path fill="#FFFFFF" d="M49.512,0.028C27.259-0.8,5.889,16.644,1.008,38.897c-4.892,22.312,8.448,42.132,30.703,43.968
	c22.492,1.853,45.401-15.628,50.348-39.139C86.989,20.292,72.004,0.866,49.512,0.028z M51.21,2.013l3.798,0.368
	c7.483,1.442,14.003,5.21,18.721,10.919c1.972,2.385,3.56,5.053,4.758,7.918l-31.197-3.45L51.21,2.013z M47.988,1.72
	c0.131,0,0.264,0.005,0.396,0.007l0.569,0.057l-3.915,15.734L17.244,14.44C25.693,6.604,36.706,1.72,47.988,1.72z M15.455,16.182
	l29.114,3.223l-4.922,19.78L4.022,34.751C6.346,27.756,10.351,21.405,15.455,16.182z M2.774,39.248
	c0.206-0.933,0.45-1.853,0.713-2.765l33.961,4.227L11.023,59.258l-7.769-1.084C1.546,52.299,1.34,45.797,2.774,39.248z M35,81.279
	c-1.045,0-2.099-0.044-3.133-0.13c-0.562-0.045-1.117-0.106-1.669-0.178l-1.021-0.153c-8.294-1.308-15.472-5.406-20.41-11.733
	c-2.146-2.75-3.799-5.852-4.961-9.179l61.976,8.647C57.346,76.397,46.328,81.279,35,81.279z M67.279,67.107L14.61,59.76L41.1,41.164
	l38.56,4.799C77.459,53.998,73.062,61.273,67.279,67.107z M80.292,43.389c-0.06,0.279-0.133,0.554-0.196,0.83l-38.202-4.757
	l4.927-19.806l32.442,3.588C81.379,29.394,81.773,36.341,80.292,43.389z"/>
</svg>
