<?xml version="1.0" encoding="utf-8"?>
<!-- Generator: Adobe Illustrator 15.0.2, SVG Export Plug-In . SVG Version: 6.00 Build 0)  -->
<!DOCTYPE svg PUBLIC "-//W3C//DTD SVG 1.1//EN" "http://www.w3.org/Graphics/SVG/1.1/DTD/svg11.dtd">
<svg version="1.1" id="Layer_1" xmlns="http://www.w3.org/2000/svg" xmlns:xlink="http://www.w3.org/1999/xlink" x="0px" y="0px"
	 width="85.039px" height="85.039px" viewBox="0 0 85.039 85.039" enable-background="new 0 0 85.039 85.039" xml:space="preserve">
<path fill="#40152A" d="M35.861,83.277c11.604,0,22.894-5.002,31.54-13.036l-63.5-8.86c1.19,3.409,2.884,6.585,5.083,9.403
	c5.059,6.482,12.413,10.682,20.911,12.021l1.046,0.158c0.566,0.073,1.135,0.135,1.71,0.183C33.71,83.232,34.79,83.277,35.861,83.277
	z"/>
<path fill="#731630" d="M11.294,60.715l-7.96-1.111c-1.749-6.021-1.961-12.683-0.491-19.393c0.21-0.955,0.46-1.897,0.73-2.833
	l34.796,4.331L11.294,60.715z M42.11,42.175L14.969,61.228l53.964,7.529c5.924-5.977,10.431-13.433,12.684-21.666L42.11,42.175z"/>
<path fill="#CC202D" d="M4.122,35.606c2.38-7.168,6.483-13.675,11.713-19.027l29.829,3.302l-5.042,20.267L4.122,35.606z
	 M81.211,23.814L47.97,20.138l-5.048,20.293l39.143,4.874c0.065-0.283,0.14-0.564,0.199-0.85
	C83.783,37.234,83.379,30.116,81.211,23.814z"/>
<path fill="#F1573A" d="M52.468,2.062l3.892,0.377c7.667,1.477,14.347,5.338,19.181,11.187c2.02,2.444,3.646,5.177,4.875,8.113
	l-31.965-3.535L52.468,2.062z M17.668,14.794l28.478,3.152l4.01-16.12l-0.583-0.058c-0.135-0.001-0.27-0.007-0.405-0.007
	C37.608,1.762,26.324,6.766,17.668,14.794z"/>
<path fill="#FFFFFF" d="M50.729,0.029C27.928-0.82,6.033,17.053,1.033,39.853c-5.012,22.861,8.656,43.169,31.458,45.049
	c23.044,1.897,46.517-16.012,51.585-40.101C89.126,20.79,73.773,0.887,50.729,0.029z M52.468,2.062l3.892,0.377
	c7.667,1.477,14.347,5.338,19.181,11.187c2.02,2.444,3.646,5.177,4.875,8.113l-31.965-3.535L52.468,2.062z M49.167,1.762
	c0.135,0,0.271,0.005,0.406,0.007l0.583,0.058l-4.011,16.12l-28.477-3.152C26.324,6.766,37.608,1.762,49.167,1.762z M15.835,16.579
	l29.829,3.302l-5.042,20.267L4.121,35.606C6.502,28.438,10.605,21.931,15.835,16.579z M2.843,40.213
	c0.21-0.956,0.46-1.898,0.73-2.833l34.796,4.33L11.294,60.715l-7.96-1.111C1.584,53.584,1.373,46.922,2.843,40.213z M35.861,83.277
	c-1.071,0-2.151-0.045-3.21-0.133c-0.576-0.046-1.144-0.109-1.71-0.182l-1.046-0.158c-8.498-1.339-15.852-5.538-20.911-12.021
	c-2.199-2.817-3.892-5.995-5.083-9.404l63.5,8.86C58.755,78.275,47.466,83.277,35.861,83.277z M68.933,68.757l-53.964-7.528
	L42.11,42.176l39.507,4.916C79.364,55.324,74.857,62.78,68.933,68.757z M82.265,44.455c-0.061,0.286-0.135,0.567-0.2,0.85
	l-39.142-4.874l5.047-20.293l33.241,3.676C83.379,30.116,83.783,37.234,82.265,44.455z"/>
</svg>
